<svg xmlns="http://www.w3.org/2000/svg" viewBox="0 0 260 68" preserveAspectRatio="none"><defs><linearGradient id="edge"><stop stop-color="#bfb1ef"/><stop offset=".5" stop-color="#9481cd"/><stop offset="1" stop-color="#bfb1ef"/></linearGradient></defs><g fill="none" stroke="url(#edge)" stroke-width="1.3" vector-effect="non-scaling-stroke"><path d="M3 18V9l6-6h24M227 3h24l6 6v9M3 50v9l6 6h24m194 0h24l6-6v-9"/><path d="M62 5q22 6 44 0m48 0q22 6 44 0M62 63q22-6 44 0m48 0q22-6 44 0"/><circle cx="130" cy="5" r="1.7"/><circle cx="130" cy="63" r="1.7"/></g><path d="M14 12h15M231 12h15M14 56h15m202 0h15" stroke="#9481cd" stroke-width=".7" opacity=".65"/></svg>
