<svg xmlns="http://www.w3.org/2000/svg" viewBox="0 0 260 68" preserveAspectRatio="none"><defs><linearGradient id="edge"><stop stop-color="#94d8c7"/><stop offset=".5" stop-color="#57ad99"/><stop offset="1" stop-color="#94d8c7"/></linearGradient></defs><g fill="none" stroke="url(#edge)" stroke-width="1.3" vector-effect="non-scaling-stroke"><path d="M3 18V9l6-6h24M227 3h24l6 6v9M3 50v9l6 6h24m194 0h24l6-6v-9"/><path d="M55 5q18 5 35 0m80 0q18 5 35 0M55 63q18-5 35 0m80 0q18-5 35 0M6 26v16m248-16v16"/></g><path d="M14 12h15M231 12h15M14 56h15m202 0h15" stroke="#57ad99" stroke-width=".7" opacity=".65"/></svg>
