<svg xmlns="http://www.w3.org/2000/svg" viewBox="0 0 260 68" preserveAspectRatio="none"><defs><linearGradient id="edge"><stop stop-color="#7773b3"/><stop offset=".5" stop-color="#b3b3df"/><stop offset="1" stop-color="#7773b3"/></linearGradient></defs><g fill="none" stroke="url(#edge)" stroke-width="1.3" vector-effect="non-scaling-stroke"><path d="M3 22Q3 3 22 3h26M212 3h26q19 0 19 19M3 46q0 19 19 19h26m164 0h26q19 0 19-19"/><path d="M62 5q22 6 44 0m48 0q22 6 44 0M62 63q22-6 44 0m48 0q22-6 44 0"/><circle cx="130" cy="5" r="1.7"/><circle cx="130" cy="63" r="1.7"/></g><path d="M14 12h15M231 12h15M14 56h15m202 0h15" stroke="#b3b3df" stroke-width=".7" opacity=".65"/></svg>
