<svg xmlns="http://www.w3.org/2000/svg" viewBox="0 0 420 900" preserveAspectRatio="xMidYMin slice"><defs><pattern id="hearts" width="56" height="56" patternUnits="userSpaceOnUse"><path d="M28 22c-6-8-13 1 0 9 13-8 6-17 0-9Z" fill="#e6b0d2" opacity=".3"/></pattern></defs><path fill="#fff1fb" d="M0 0h420v900H0Z"/><path fill="url(#hearts)" d="M0 0h420v900H0Z"/><g stroke="#d89bc4" fill="none" opacity=".3"><circle cx="310" cy="198" r="94"/><circle cx="310" cy="198" r="80" stroke-dasharray="2 9"/><path d="m310 94 90 156H220ZM310 302l90-156H220Z"/><circle cx="45" cy="684" r="124"/><circle cx="45" cy="684" r="108" stroke-dasharray="2 10"/></g><g fill="#ebbfdd" stroke="#d094ba" stroke-width="1.5"><path d="M0 72q90 41 174-12l36 25 36-25q84 53 174 12v24q-105 43-174-14l-36 28-36-28Q105 139 0 96Z"/><path d="m188 75-18-18 1 34 24-5-8 34 24-20 21 20-7-34 25 5 1-34-23 18"/></g><path d="M210 73c-16-19-31 5 0 23 31-18 16-42 0-23Z" fill="#ce70a2" stroke="#a6477c"/><g fill="#f5e6b8" stroke="#b89958"><path d="m354 453 6 12 13 2-10 9 3 13-12-6-12 6 3-13-10-9 13-2Z"/><path d="m90 801 5 10 11 2-8 8 2 11-10-5-10 5 2-11-8-8 11-2Z"/></g></svg>
