<svg width="300" height="400" viewBox="0 0 300 400" fill="none" xmlns="http://www.w3.org/2000/svg">
  <defs>
    <linearGradient id="bg" x1="150" y1="24" x2="150" y2="376" gradientUnits="userSpaceOnUse">
      <stop stop-color="#18294A"/>
      <stop offset="1" stop-color="#070B15"/>
    </linearGradient>
    <radialGradient id="halo" cx="0" cy="0" r="1" gradientUnits="userSpaceOnUse" gradientTransform="translate(150 104) rotate(90) scale(118 96)">
      <stop stop-color="#A9E6FF" stop-opacity="0.95"/>
      <stop offset="0.5" stop-color="#5CB6FF" stop-opacity="0.42"/>
      <stop offset="1" stop-color="#5CB6FF" stop-opacity="0"/>
    </radialGradient>
    <linearGradient id="hair" x1="150" y1="66" x2="150" y2="250" gradientUnits="userSpaceOnUse">
      <stop stop-color="#DDF7FF"/>
      <stop offset="0.42" stop-color="#7FC7FF"/>
      <stop offset="1" stop-color="#2856A4"/>
    </linearGradient>
    <linearGradient id="robe" x1="150" y1="224" x2="150" y2="382" gradientUnits="userSpaceOnUse">
      <stop stop-color="#F4FBFF"/>
      <stop offset="0.18" stop-color="#BCD9FF"/>
      <stop offset="0.22" stop-color="#4E74C5"/>
      <stop offset="1" stop-color="#12284F"/>
    </linearGradient>
    <linearGradient id="trim" x1="150" y1="230" x2="150" y2="378" gradientUnits="userSpaceOnUse">
      <stop stop-color="#FFF8E5"/>
      <stop offset="1" stop-color="#D9B565"/>
    </linearGradient>
  </defs>

  <rect x="12" y="12" width="276" height="376" rx="28" fill="url(#bg)"/>
  <rect x="16" y="16" width="268" height="368" rx="24" stroke="#58AFFF" stroke-opacity="0.22" stroke-width="2"/>
  <ellipse cx="150" cy="108" rx="124" ry="98" fill="url(#halo)"/>
  <circle cx="82" cy="82" r="8" fill="#E0F7FF" fill-opacity="0.48"/>
  <circle cx="220" cy="94" r="12" fill="#8EDCFF" fill-opacity="0.24"/>
  <circle cx="233" cy="72" r="4" fill="#F8F3B9" fill-opacity="0.72"/>

  <path d="M73 334C89 266 111 228 150 228C189 228 211 266 227 334L150 372L73 334Z" fill="url(#robe)"/>
  <path d="M112 236C124 254 138 265 150 265C162 265 176 254 188 236L170 372H130L112 236Z" fill="url(#trim)"/>
  <path d="M88 356C107 315 124 296 150 296C176 296 193 315 212 356" stroke="#17335C" stroke-opacity="0.35" stroke-width="10" stroke-linecap="round"/>

  <ellipse cx="150" cy="164" rx="52" ry="66" fill="#FFE7D8"/>
  <path d="M106 160C108 132 126 112 150 112C174 112 192 132 194 160V184C194 209 174 228 150 228C126 228 106 209 106 184V160Z" fill="#FFE7D8"/>
  <ellipse cx="124" cy="182" rx="11" ry="6" fill="#FFB7C8" fill-opacity="0.55"/>
  <ellipse cx="176" cy="182" rx="11" ry="6" fill="#FFB7C8" fill-opacity="0.55"/>
  <path d="M140 190C145 194 155 194 160 190" stroke="#D66D91" stroke-width="4" stroke-linecap="round"/>

  <path d="M94 135C100 88 124 60 150 60C176 60 200 88 206 135L201 208C188 224 170 232 150 232C130 232 112 224 99 208L94 135Z" fill="url(#hair)"/>
  <path d="M98 140C96 108 110 76 134 64C126 88 118 102 99 119L98 140Z" fill="#EFFFFF" fill-opacity="0.74"/>
  <path d="M202 140C204 108 190 76 166 64C174 88 182 102 201 119L202 140Z" fill="#EFFFFF" fill-opacity="0.74"/>
  <path d="M103 145C103 117 124 94 150 94C176 94 197 117 197 145V164C188 150 172 141 150 141C128 141 112 150 103 164V145Z" fill="#9AD9FF" fill-opacity="0.35"/>
  <path d="M116 144C126 134 137 129 150 129C163 129 174 134 184 144" stroke="#1A3568" stroke-width="6" stroke-linecap="round"/>

  <ellipse cx="130" cy="166" rx="8" ry="10" fill="#1B3768"/>
  <ellipse cx="170" cy="166" rx="8" ry="10" fill="#1B3768"/>
  <circle cx="133" cy="163" r="2.5" fill="#F4FBFF"/>
  <circle cx="173" cy="163" r="2.5" fill="#F4FBFF"/>

  <path d="M121 238C128 228 138 222 150 222C162 222 172 228 179 238" stroke="#B5D9FF" stroke-width="6" stroke-linecap="round" opacity="0.7"/>
  <path d="M70 324C84 286 107 257 124 243" stroke="#77BFFF" stroke-opacity="0.4" stroke-width="6" stroke-linecap="round"/>
  <path d="M230 324C216 286 193 257 176 243" stroke="#77BFFF" stroke-opacity="0.4" stroke-width="6" stroke-linecap="round"/>
</svg>
